<mxfile host="Electron" modified="2024-05-07T10:31:30.226Z" agent="Mozilla/5.0 (Windows NT 10.0; Win64; x64) AppleWebKit/537.36 (KHTML, like Gecko) draw.io/24.2.5 Chrome/120.0.6099.109 Electron/28.1.0 Safari/537.36" etag="d3xRjyLYgsZbfa5bZYA-" version="24.2.5" type="device">
  <diagram name="Pagina-1" id="V73d0ug6ILfmdheoSVCL">
    <mxGraphModel dx="2327" dy="887" grid="1" gridSize="10" guides="1" tooltips="1" connect="1" arrows="1" fold="1" page="1" pageScale="1" pageWidth="827" pageHeight="1169" math="0" shadow="0">
      <root>
        <mxCell id="0" />
        <mxCell id="1" parent="0" />
        <mxCell id="OiWN0n3dhtqpjeu4GgEJ-84" style="edgeStyle=orthogonalEdgeStyle;rounded=0;orthogonalLoop=1;jettySize=auto;html=1;exitX=0;exitY=0.5;exitDx=0;exitDy=0;endArrow=oval;endFill=0;" parent="1" source="OiWN0n3dhtqpjeu4GgEJ-85" edge="1">
          <mxGeometry relative="1" as="geometry">
            <mxPoint x="-93.34000000000002" y="917.13" as="targetPoint" />
            <Array as="points">
              <mxPoint x="-70.34000000000002" y="917.13" />
            </Array>
          </mxGeometry>
        </mxCell>
        <mxCell id="OiWN0n3dhtqpjeu4GgEJ-85" value="Abbigliamento" style="whiteSpace=wrap;html=1;align=center;" parent="1" vertex="1">
          <mxGeometry x="-70.84000000000002" y="890.88" width="85" height="30" as="geometry" />
        </mxCell>
        <mxCell id="OiWN0n3dhtqpjeu4GgEJ-88" value="&lt;font style=&quot;font-size: 9px;&quot;&gt;Materiale&lt;/font&gt;" style="text;html=1;align=center;verticalAlign=middle;whiteSpace=wrap;rounded=0;" parent="1" vertex="1">
          <mxGeometry x="-133.34000000000003" y="888.88" width="35" height="15" as="geometry" />
        </mxCell>
        <mxCell id="OiWN0n3dhtqpjeu4GgEJ-92" value="&lt;font style=&quot;font-size: 8px;&quot;&gt;(1,N)&lt;/font&gt;" style="text;html=1;align=center;verticalAlign=middle;whiteSpace=wrap;rounded=1;strokeColor=none;glass=0;" parent="1" vertex="1">
          <mxGeometry x="6.659999999999982" y="895.88" width="50" height="15" as="geometry" />
        </mxCell>
        <mxCell id="OiWN0n3dhtqpjeu4GgEJ-97" value="&lt;font style=&quot;font-size: 9px;&quot;&gt;Descrizione&lt;/font&gt;" style="text;html=1;align=center;verticalAlign=middle;whiteSpace=wrap;rounded=0;" parent="1" vertex="1">
          <mxGeometry x="-143.34000000000003" y="905.88" width="40" height="17" as="geometry" />
        </mxCell>
        <mxCell id="OiWN0n3dhtqpjeu4GgEJ-98" value="&lt;font style=&quot;font-size: 9px;&quot;&gt;Colore&lt;/font&gt;" style="text;html=1;align=center;verticalAlign=middle;whiteSpace=wrap;rounded=0;" parent="1" vertex="1">
          <mxGeometry x="44.15999999999998" y="903.88" width="40" height="17" as="geometry" />
        </mxCell>
        <mxCell id="OiWN0n3dhtqpjeu4GgEJ-99" style="edgeStyle=orthogonalEdgeStyle;rounded=0;orthogonalLoop=1;jettySize=auto;html=1;exitX=1.011;exitY=0.878;exitDx=0;exitDy=0;endArrow=oval;endFill=0;exitPerimeter=0;" parent="1" edge="1">
          <mxGeometry relative="1" as="geometry">
            <mxPoint x="14.164999999999921" y="914.33" as="sourcePoint" />
            <mxPoint x="45.729999999999976" y="914.24" as="targetPoint" />
            <Array as="points">
              <mxPoint x="25.729999999999976" y="914.24" />
              <mxPoint x="25.729999999999976" y="914.24" />
            </Array>
          </mxGeometry>
        </mxCell>
        <mxCell id="OiWN0n3dhtqpjeu4GgEJ-100" value="&lt;font style=&quot;font-size: 9px;&quot;&gt;Nome&lt;/font&gt;" style="text;html=1;align=center;verticalAlign=middle;whiteSpace=wrap;rounded=0;" parent="1" vertex="1">
          <mxGeometry x="-78.34000000000002" y="847.13" width="40" height="17" as="geometry" />
        </mxCell>
        <mxCell id="OiWN0n3dhtqpjeu4GgEJ-101" style="edgeStyle=orthogonalEdgeStyle;rounded=0;orthogonalLoop=1;jettySize=auto;html=1;endArrow=oval;endFill=0;" parent="1" edge="1">
          <mxGeometry relative="1" as="geometry">
            <mxPoint x="-70.84000000000002" y="898.5" as="sourcePoint" />
            <mxPoint x="-92.84000000000002" y="898.25" as="targetPoint" />
            <Array as="points">
              <mxPoint x="-70.84000000000002" y="898.5" />
              <mxPoint x="-69.84000000000002" y="898.5" />
            </Array>
          </mxGeometry>
        </mxCell>
        <mxCell id="OiWN0n3dhtqpjeu4GgEJ-102" style="edgeStyle=orthogonalEdgeStyle;rounded=0;orthogonalLoop=1;jettySize=auto;html=1;endArrow=oval;endFill=1;" parent="1" edge="1">
          <mxGeometry relative="1" as="geometry">
            <mxPoint x="-58.34000000000002" y="890.88" as="sourcePoint" />
            <mxPoint x="-58.34000000000002" y="867.13" as="targetPoint" />
            <Array as="points">
              <mxPoint x="-58.34000000000002" y="890.88" />
            </Array>
          </mxGeometry>
        </mxCell>
        <mxCell id="OiWN0n3dhtqpjeu4GgEJ-108" value="" style="shape=flexArrow;endArrow=classic;html=1;rounded=0;fillColor=#000000;endWidth=19.23076923076923;endSize=3.848717948717949;exitX=0.513;exitY=0.543;exitDx=0;exitDy=0;exitPerimeter=0;" parent="1" source="OiWN0n3dhtqpjeu4GgEJ-110" edge="1">
          <mxGeometry width="50" height="50" relative="1" as="geometry">
            <mxPoint x="-28.340000000000018" y="947.13" as="sourcePoint" />
            <mxPoint x="-28.499999999999986" y="920.88" as="targetPoint" />
          </mxGeometry>
        </mxCell>
        <mxCell id="OiWN0n3dhtqpjeu4GgEJ-109" value="&lt;font style=&quot;font-size: 9px;&quot;&gt;Stile&lt;/font&gt;" style="text;html=1;align=center;verticalAlign=middle;whiteSpace=wrap;rounded=0;" parent="1" vertex="1">
          <mxGeometry x="-173.98000000000002" y="946.25" width="25.25" height="16.7" as="geometry" />
        </mxCell>
        <mxCell id="OiWN0n3dhtqpjeu4GgEJ-110" value="" style="line;strokeWidth=1;rotatable=0;dashed=0;labelPosition=right;align=left;verticalAlign=middle;spacingTop=0;spacingLeft=6;points=[];portConstraint=eastwest;" parent="1" vertex="1">
          <mxGeometry x="-99.34000000000002" y="941.38" width="138" height="10" as="geometry" />
        </mxCell>
        <mxCell id="OiWN0n3dhtqpjeu4GgEJ-133" style="edgeStyle=orthogonalEdgeStyle;rounded=0;orthogonalLoop=1;jettySize=auto;html=1;exitX=0.5;exitY=1;exitDx=0;exitDy=0;" parent="1" edge="1">
          <mxGeometry relative="1" as="geometry">
            <mxPoint x="-271.52" y="597.8500000000001" as="sourcePoint" />
            <mxPoint x="-271.52" y="597.8500000000001" as="targetPoint" />
          </mxGeometry>
        </mxCell>
        <mxCell id="OiWN0n3dhtqpjeu4GgEJ-146" value="Accessorio" style="whiteSpace=wrap;html=1;align=center;" parent="1" vertex="1">
          <mxGeometry x="1.3399999999999892" y="946.4" width="67.5" height="20" as="geometry" />
        </mxCell>
        <mxCell id="OiWN0n3dhtqpjeu4GgEJ-147" value="&lt;font style=&quot;font-size: 9px;&quot;&gt;Scopo&lt;/font&gt;" style="text;html=1;align=center;verticalAlign=middle;whiteSpace=wrap;rounded=0;" parent="1" vertex="1">
          <mxGeometry x="78.83999999999999" y="946.1" width="40" height="17" as="geometry" />
        </mxCell>
        <mxCell id="OiWN0n3dhtqpjeu4GgEJ-148" style="edgeStyle=orthogonalEdgeStyle;rounded=0;orthogonalLoop=1;jettySize=auto;html=1;exitX=1.001;exitY=0.609;exitDx=0;exitDy=0;endArrow=oval;endFill=0;exitPerimeter=0;" parent="1" edge="1">
          <mxGeometry relative="1" as="geometry">
            <mxPoint x="68.83749999999998" y="956.1999999999998" as="sourcePoint" />
            <mxPoint x="81.26999999999998" y="955.95" as="targetPoint" />
          </mxGeometry>
        </mxCell>
        <mxCell id="OiWN0n3dhtqpjeu4GgEJ-154" value="Abito" style="whiteSpace=wrap;html=1;align=center;" parent="1" vertex="1">
          <mxGeometry x="-120.79" y="946.4" width="57.5" height="20" as="geometry" />
        </mxCell>
        <mxCell id="OiWN0n3dhtqpjeu4GgEJ-118" value="" style="shape=singleArrow;direction=north;whiteSpace=wrap;html=1;arrowWidth=0.3808905843098993;arrowSize=0.6576580700573631;" parent="1" vertex="1">
          <mxGeometry x="-338.7800000000001" y="860.1" width="30" height="18.5" as="geometry" />
        </mxCell>
        <mxCell id="OiWN0n3dhtqpjeu4GgEJ-119" style="edgeStyle=orthogonalEdgeStyle;rounded=0;orthogonalLoop=1;jettySize=auto;html=1;exitX=0.5;exitY=1;exitDx=0;exitDy=0;" parent="1" edge="1">
          <mxGeometry relative="1" as="geometry">
            <mxPoint x="-437.9299999999999" y="811.7399999999999" as="sourcePoint" />
            <mxPoint x="-437.9299999999999" y="811.7399999999999" as="targetPoint" />
          </mxGeometry>
        </mxCell>
        <mxCell id="OiWN0n3dhtqpjeu4GgEJ-120" value="&lt;font style=&quot;font-size: 8px;&quot;&gt;(1,N)&lt;/font&gt;" style="text;html=1;align=center;verticalAlign=middle;whiteSpace=wrap;rounded=1;strokeColor=none;glass=0;" parent="1" vertex="1">
          <mxGeometry x="-505.10999999999996" y="827.4899999999999" width="22.5" height="8.79" as="geometry" />
        </mxCell>
        <mxCell id="OiWN0n3dhtqpjeu4GgEJ-121" style="edgeStyle=orthogonalEdgeStyle;rounded=0;orthogonalLoop=1;jettySize=auto;html=1;exitX=0.5;exitY=1;exitDx=0;exitDy=0;" parent="1" edge="1">
          <mxGeometry relative="1" as="geometry">
            <mxPoint x="-511.48999999999995" y="867.5099999999999" as="sourcePoint" />
            <mxPoint x="-511.48999999999995" y="867.5099999999999" as="targetPoint" />
          </mxGeometry>
        </mxCell>
        <mxCell id="OiWN0n3dhtqpjeu4GgEJ-122" value="&lt;font style=&quot;font-size: 8px;&quot;&gt;(1,1)&lt;/font&gt;" style="text;html=1;align=center;verticalAlign=middle;whiteSpace=wrap;rounded=1;strokeColor=none;glass=0;" parent="1" vertex="1">
          <mxGeometry x="-571.7199999999999" y="891.8299999999999" width="22.5" height="8.79" as="geometry" />
        </mxCell>
        <mxCell id="OiWN0n3dhtqpjeu4GgEJ-123" style="edgeStyle=orthogonalEdgeStyle;rounded=0;orthogonalLoop=1;jettySize=auto;html=1;exitX=0.5;exitY=1;exitDx=0;exitDy=0;" parent="1" edge="1">
          <mxGeometry relative="1" as="geometry">
            <mxPoint x="-90.7" y="1011.79" as="sourcePoint" />
            <mxPoint x="-90.7" y="1011.79" as="targetPoint" />
          </mxGeometry>
        </mxCell>
        <mxCell id="OiWN0n3dhtqpjeu4GgEJ-124" value="&lt;font style=&quot;font-size: 8px;&quot;&gt;(0,N)&lt;/font&gt;" style="text;html=1;align=center;verticalAlign=middle;whiteSpace=wrap;rounded=1;strokeColor=none;glass=0;" parent="1" vertex="1">
          <mxGeometry x="-100.83999999999999" y="1021.6099999999999" width="22.5" height="8.79" as="geometry" />
        </mxCell>
        <mxCell id="OiWN0n3dhtqpjeu4GgEJ-135" value="&lt;span style=&quot;font-size: 8px;&quot;&gt;(1,1)&lt;/span&gt;" style="text;html=1;align=center;verticalAlign=middle;whiteSpace=wrap;rounded=1;strokeColor=none;glass=0;" parent="1" vertex="1">
          <mxGeometry x="-423.44" y="829.5300000000001" width="22.5" height="6.75" as="geometry" />
        </mxCell>
        <mxCell id="OiWN0n3dhtqpjeu4GgEJ-136" value="&lt;span style=&quot;font-size: 8px;&quot;&gt;(1,1)&lt;/span&gt;" style="text;html=1;align=center;verticalAlign=middle;whiteSpace=wrap;rounded=1;strokeColor=none;glass=0;" parent="1" vertex="1">
          <mxGeometry x="-180.00000000000006" y="1021.6100000000001" width="22.5" height="6.75" as="geometry" />
        </mxCell>
        <mxCell id="OiWN0n3dhtqpjeu4GgEJ-137" value="&lt;span style=&quot;font-size: 8px;&quot;&gt;(1,1)&lt;/span&gt;" style="text;html=1;align=center;verticalAlign=middle;whiteSpace=wrap;rounded=1;strokeColor=none;glass=0;" parent="1" vertex="1">
          <mxGeometry x="-487.63999999999993" y="892.8500000000001" width="22.5" height="6.75" as="geometry" />
        </mxCell>
        <mxCell id="OiWN0n3dhtqpjeu4GgEJ-139" value="&lt;div&gt;Utilizzo&lt;/div&gt;&lt;div&gt;corrente&lt;/div&gt;" style="whiteSpace=wrap;html=1;align=center;" parent="1" vertex="1">
          <mxGeometry x="-427.71" y="891.83" width="75.33" height="29.25" as="geometry" />
        </mxCell>
        <mxCell id="OiWN0n3dhtqpjeu4GgEJ-140" value="" style="endArrow=none;html=1;rounded=0;exitX=0.5;exitY=0;exitDx=0;exitDy=0;" parent="1" source="OiWN0n3dhtqpjeu4GgEJ-139" edge="1">
          <mxGeometry width="50" height="50" relative="1" as="geometry">
            <mxPoint x="-445.38999999999993" y="883.6999999999999" as="sourcePoint" />
            <mxPoint x="-389.94" y="878.6" as="targetPoint" />
          </mxGeometry>
        </mxCell>
        <mxCell id="OiWN0n3dhtqpjeu4GgEJ-141" value="" style="endArrow=none;html=1;rounded=0;" parent="1" edge="1">
          <mxGeometry width="50" height="50" relative="1" as="geometry">
            <mxPoint x="-390.44" y="878.6" as="sourcePoint" />
            <mxPoint x="-263.94" y="878.6999999999999" as="targetPoint" />
          </mxGeometry>
        </mxCell>
        <mxCell id="OiWN0n3dhtqpjeu4GgEJ-207" style="edgeStyle=orthogonalEdgeStyle;rounded=0;orthogonalLoop=1;jettySize=auto;html=1;exitX=1;exitY=0.5;exitDx=0;exitDy=0;endArrow=none;endFill=0;" parent="1" source="OiWN0n3dhtqpjeu4GgEJ-144" target="OiWN0n3dhtqpjeu4GgEJ-139" edge="1">
          <mxGeometry relative="1" as="geometry" />
        </mxCell>
        <mxCell id="OiWN0n3dhtqpjeu4GgEJ-144" value="A-Ucor" style="shape=rhombus;perimeter=rhombusPerimeter;whiteSpace=wrap;html=1;align=center;" parent="1" vertex="1">
          <mxGeometry x="-560" y="885.28" width="79.96" height="42.36" as="geometry" />
        </mxCell>
        <mxCell id="OiWN0n3dhtqpjeu4GgEJ-163" value="&lt;font style=&quot;font-size: 8px;&quot;&gt;Ora&lt;/font&gt;" style="text;html=1;align=center;verticalAlign=middle;whiteSpace=wrap;rounded=1;strokeColor=none;glass=0;" parent="1" vertex="1">
          <mxGeometry x="-295.25" y="793.34" width="30" height="11.5" as="geometry" />
        </mxCell>
        <mxCell id="OiWN0n3dhtqpjeu4GgEJ-164" style="edgeStyle=orthogonalEdgeStyle;rounded=0;orthogonalLoop=1;jettySize=auto;html=1;exitX=1;exitY=1;exitDx=0;exitDy=0;endArrow=oval;endFill=0;" parent="1" edge="1">
          <mxGeometry relative="1" as="geometry">
            <mxPoint x="-314.42362007710926" y="800.413264551872" as="sourcePoint" />
            <mxPoint x="-293.25" y="800.27" as="targetPoint" />
          </mxGeometry>
        </mxCell>
        <mxCell id="OiWN0n3dhtqpjeu4GgEJ-165" value="&lt;font style=&quot;font-size: 8px;&quot;&gt;Data&lt;/font&gt;" style="text;html=1;align=center;verticalAlign=middle;whiteSpace=wrap;rounded=1;strokeColor=none;glass=0;" parent="1" vertex="1">
          <mxGeometry x="-295.25" y="784.47" width="30" height="6.5" as="geometry" />
        </mxCell>
        <mxCell id="OiWN0n3dhtqpjeu4GgEJ-166" style="edgeStyle=orthogonalEdgeStyle;rounded=0;orthogonalLoop=1;jettySize=auto;html=1;exitX=1;exitY=0;exitDx=0;exitDy=0;entryX=0.086;entryY=0.404;entryDx=0;entryDy=0;entryPerimeter=0;endArrow=oval;endFill=0;" parent="1" source="OiWN0n3dhtqpjeu4GgEJ-171" target="OiWN0n3dhtqpjeu4GgEJ-165" edge="1">
          <mxGeometry relative="1" as="geometry" />
        </mxCell>
        <mxCell id="OiWN0n3dhtqpjeu4GgEJ-167" value="" style="endArrow=none;html=1;rounded=0;exitX=0.5;exitY=1;exitDx=0;exitDy=0;" parent="1" edge="1">
          <mxGeometry width="50" height="50" relative="1" as="geometry">
            <mxPoint x="-327.56" y="793.34" as="sourcePoint" />
            <mxPoint x="-327.56" y="833.34" as="targetPoint" />
          </mxGeometry>
        </mxCell>
        <mxCell id="OiWN0n3dhtqpjeu4GgEJ-171" value="&lt;p style=&quot;line-height: 110%;&quot;&gt;&lt;font style=&quot;font-size: 7px;&quot;&gt;DataInizio&lt;/font&gt;&lt;/p&gt;" style="ellipse;whiteSpace=wrap;html=1;" parent="1" vertex="1">
          <mxGeometry x="-345.25" y="784.84" width="36.12" height="20" as="geometry" />
        </mxCell>
        <mxCell id="OiWN0n3dhtqpjeu4GgEJ-173" value="" style="curved=1;endArrow=oval;html=1;rounded=0;endFill=1;" parent="1" edge="1">
          <mxGeometry width="50" height="50" relative="1" as="geometry">
            <mxPoint x="-305.58" y="811.59" as="sourcePoint" />
            <mxPoint x="-391.69999999999993" y="855.4899999999999" as="targetPoint" />
            <Array as="points">
              <mxPoint x="-389.44999999999993" y="812.4899999999999" />
              <mxPoint x="-391.69999999999993" y="862.09" />
            </Array>
          </mxGeometry>
        </mxCell>
        <mxCell id="OiWN0n3dhtqpjeu4GgEJ-210" style="edgeStyle=orthogonalEdgeStyle;rounded=0;orthogonalLoop=1;jettySize=auto;html=1;exitX=1;exitY=0.5;exitDx=0;exitDy=0;entryX=0.5;entryY=1;entryDx=0;entryDy=0;endArrow=none;endFill=0;" parent="1" source="OiWN0n3dhtqpjeu4GgEJ-181" target="OiWN0n3dhtqpjeu4GgEJ-146" edge="1">
          <mxGeometry relative="1" as="geometry" />
        </mxCell>
        <mxCell id="OiWN0n3dhtqpjeu4GgEJ-181" value="U-A" style="shape=rhombus;perimeter=rhombusPerimeter;whiteSpace=wrap;html=1;align=center;" parent="1" vertex="1">
          <mxGeometry x="-168.5800000000001" y="1015.5700000000002" width="73.56" height="42.36" as="geometry" />
        </mxCell>
        <mxCell id="OiWN0n3dhtqpjeu4GgEJ-209" style="edgeStyle=orthogonalEdgeStyle;rounded=0;orthogonalLoop=1;jettySize=auto;html=1;exitX=1;exitY=0.5;exitDx=0;exitDy=0;entryX=0;entryY=0.5;entryDx=0;entryDy=0;endArrow=none;endFill=0;" parent="1" source="OiWN0n3dhtqpjeu4GgEJ-182" target="OiWN0n3dhtqpjeu4GgEJ-181" edge="1">
          <mxGeometry relative="1" as="geometry">
            <Array as="points">
              <mxPoint x="-200" y="846" />
              <mxPoint x="-200" y="1037" />
            </Array>
          </mxGeometry>
        </mxCell>
        <mxCell id="OiWN0n3dhtqpjeu4GgEJ-182" value="Utilizzo" style="whiteSpace=wrap;html=1;align=center;" parent="1" vertex="1">
          <mxGeometry x="-376.2800000000001" y="831.2299999999999" width="96.58" height="28.87" as="geometry" />
        </mxCell>
        <mxCell id="OiWN0n3dhtqpjeu4GgEJ-208" style="edgeStyle=orthogonalEdgeStyle;rounded=0;orthogonalLoop=1;jettySize=auto;html=1;exitX=1;exitY=0.5;exitDx=0;exitDy=0;entryX=0;entryY=0.25;entryDx=0;entryDy=0;endArrow=none;endFill=0;" parent="1" source="OiWN0n3dhtqpjeu4GgEJ-183" target="OiWN0n3dhtqpjeu4GgEJ-182" edge="1">
          <mxGeometry relative="1" as="geometry" />
        </mxCell>
        <mxCell id="OiWN0n3dhtqpjeu4GgEJ-183" value="A-U" style="shape=rhombus;perimeter=rhombusPerimeter;whiteSpace=wrap;html=1;align=center;" parent="1" vertex="1">
          <mxGeometry x="-487.33" y="822.47" width="73.56" height="42.36" as="geometry" />
        </mxCell>
        <mxCell id="OiWN0n3dhtqpjeu4GgEJ-196" style="edgeStyle=orthogonalEdgeStyle;rounded=0;orthogonalLoop=1;jettySize=auto;html=1;exitX=1;exitY=1;exitDx=0;exitDy=0;endArrow=oval;endFill=0;" parent="1" edge="1">
          <mxGeometry relative="1" as="geometry">
            <mxPoint x="-253.59362007710925" y="953.8332645518718" as="sourcePoint" />
            <mxPoint x="-232.42" y="953.6899999999999" as="targetPoint" />
          </mxGeometry>
        </mxCell>
        <mxCell id="OiWN0n3dhtqpjeu4GgEJ-197" value="&lt;p style=&quot;line-height: 110%;&quot;&gt;&lt;font style=&quot;font-size: 7px;&quot;&gt;DataFine&lt;/font&gt;&lt;/p&gt;" style="ellipse;whiteSpace=wrap;html=1;" parent="1" vertex="1">
          <mxGeometry x="-284.42" y="938.2599999999999" width="36.12" height="20" as="geometry" />
        </mxCell>
        <mxCell id="OiWN0n3dhtqpjeu4GgEJ-198" value="" style="endArrow=none;html=1;rounded=0;" parent="1" edge="1">
          <mxGeometry width="50" height="50" relative="1" as="geometry">
            <mxPoint x="-266.21" y="910.11" as="sourcePoint" />
            <mxPoint x="-265.95" y="938.2600000000001" as="targetPoint" />
          </mxGeometry>
        </mxCell>
        <mxCell id="OiWN0n3dhtqpjeu4GgEJ-199" value="&lt;div&gt;Utilizzo&lt;/div&gt;&lt;div&gt;passato&lt;/div&gt;" style="whiteSpace=wrap;html=1;align=center;" parent="1" vertex="1">
          <mxGeometry x="-302.26" y="891.83" width="80.33" height="29.25" as="geometry" />
        </mxCell>
        <mxCell id="OiWN0n3dhtqpjeu4GgEJ-200" style="edgeStyle=orthogonalEdgeStyle;rounded=0;orthogonalLoop=1;jettySize=auto;html=1;exitX=1;exitY=0;exitDx=0;exitDy=0;entryX=0.086;entryY=0.404;entryDx=0;entryDy=0;entryPerimeter=0;endArrow=oval;endFill=0;" parent="1" edge="1">
          <mxGeometry relative="1" as="geometry">
            <mxPoint x="-254.79" y="940.75" as="sourcePoint" />
            <mxPoint x="-233.79" y="939.75" as="targetPoint" />
          </mxGeometry>
        </mxCell>
        <mxCell id="OiWN0n3dhtqpjeu4GgEJ-201" value="&lt;font style=&quot;font-size: 8px;&quot;&gt;Data&lt;/font&gt;" style="text;html=1;align=center;verticalAlign=middle;whiteSpace=wrap;rounded=1;strokeColor=none;glass=0;" parent="1" vertex="1">
          <mxGeometry x="-234.93999999999997" y="935.91" width="30" height="6.5" as="geometry" />
        </mxCell>
        <mxCell id="OiWN0n3dhtqpjeu4GgEJ-202" value="&lt;font style=&quot;font-size: 8px;&quot;&gt;Ora&lt;/font&gt;" style="text;html=1;align=center;verticalAlign=middle;whiteSpace=wrap;rounded=1;strokeColor=none;glass=0;" parent="1" vertex="1">
          <mxGeometry x="-234.93999999999997" y="945.91" width="30" height="11.5" as="geometry" />
        </mxCell>
        <mxCell id="OiWN0n3dhtqpjeu4GgEJ-87" value="&lt;font style=&quot;font-size: 8px;&quot;&gt;Esperienza&lt;/font&gt;" style="text;html=1;align=center;verticalAlign=middle;whiteSpace=wrap;rounded=1;strokeColor=none;" parent="1" vertex="1">
          <mxGeometry x="-719.9999999999998" y="954.4699999999999" width="49" height="23" as="geometry" />
        </mxCell>
        <mxCell id="OiWN0n3dhtqpjeu4GgEJ-96" value="&lt;font style=&quot;font-size: 8px;&quot;&gt;Nickname&lt;/font&gt;" style="text;html=1;align=center;verticalAlign=middle;whiteSpace=wrap;rounded=1;strokeColor=none;" parent="1" vertex="1">
          <mxGeometry x="-710.4999999999998" y="942.41" width="30" height="23.5" as="geometry" />
        </mxCell>
        <mxCell id="OiWN0n3dhtqpjeu4GgEJ-95" style="edgeStyle=orthogonalEdgeStyle;rounded=0;orthogonalLoop=1;jettySize=auto;html=1;exitX=0;exitY=0.25;exitDx=0;exitDy=0;endArrow=oval;endFill=1;" parent="1" edge="1">
          <mxGeometry relative="1" as="geometry">
            <mxPoint x="-670.4999999999998" y="956.41" as="targetPoint" />
            <mxPoint x="-650.4999999999998" y="956.18" as="sourcePoint" />
            <Array as="points">
              <mxPoint x="-660.4999999999998" y="956.41" />
            </Array>
          </mxGeometry>
        </mxCell>
        <mxCell id="OiWN0n3dhtqpjeu4GgEJ-138" style="edgeStyle=orthogonalEdgeStyle;rounded=0;orthogonalLoop=1;jettySize=auto;html=1;exitX=0;exitY=0.25;exitDx=0;exitDy=0;endArrow=oval;endFill=0;" parent="1" edge="1">
          <mxGeometry relative="1" as="geometry">
            <mxPoint x="-670.4999999999998" y="967.83" as="targetPoint" />
            <mxPoint x="-650.4999999999998" y="967.6" as="sourcePoint" />
            <Array as="points">
              <mxPoint x="-660.4999999999998" y="967.83" />
            </Array>
          </mxGeometry>
        </mxCell>
        <mxCell id="VHJSc8iQH5DHdlUISoi8-1" style="edgeStyle=orthogonalEdgeStyle;rounded=0;orthogonalLoop=1;jettySize=auto;html=1;exitX=0.25;exitY=0;exitDx=0;exitDy=0;entryX=0;entryY=0.5;entryDx=0;entryDy=0;endArrow=none;endFill=0;" edge="1" parent="1" source="OiWN0n3dhtqpjeu4GgEJ-159" target="OiWN0n3dhtqpjeu4GgEJ-183">
          <mxGeometry relative="1" as="geometry" />
        </mxCell>
        <mxCell id="VHJSc8iQH5DHdlUISoi8-2" style="edgeStyle=orthogonalEdgeStyle;rounded=0;orthogonalLoop=1;jettySize=auto;html=1;exitX=0.75;exitY=0;exitDx=0;exitDy=0;entryX=0;entryY=0.5;entryDx=0;entryDy=0;endArrow=none;endFill=0;" edge="1" parent="1" source="OiWN0n3dhtqpjeu4GgEJ-159" target="OiWN0n3dhtqpjeu4GgEJ-144">
          <mxGeometry relative="1" as="geometry" />
        </mxCell>
        <mxCell id="OiWN0n3dhtqpjeu4GgEJ-159" value="Avatar" style="whiteSpace=wrap;html=1;align=center;" parent="1" vertex="1">
          <mxGeometry x="-650.4999999999998" y="946.41" width="60" height="30" as="geometry" />
        </mxCell>
        <mxCell id="OiWN0n3dhtqpjeu4GgEJ-214" style="edgeStyle=orthogonalEdgeStyle;rounded=0;orthogonalLoop=1;jettySize=auto;html=1;exitX=0;exitY=0.5;exitDx=0;exitDy=0;entryX=1.069;entryY=0.623;entryDx=0;entryDy=0;entryPerimeter=0;endArrow=oval;endFill=0;" parent="1" source="OiWN0n3dhtqpjeu4GgEJ-154" target="OiWN0n3dhtqpjeu4GgEJ-109" edge="1">
          <mxGeometry relative="1" as="geometry" />
        </mxCell>
        <mxCell id="VHJSc8iQH5DHdlUISoi8-3" value="" style="endArrow=none;html=1;rounded=0;entryX=0.476;entryY=-0.004;entryDx=0;entryDy=0;entryPerimeter=0;" edge="1" parent="1">
          <mxGeometry width="50" height="50" relative="1" as="geometry">
            <mxPoint x="-265.17" y="878.6" as="sourcePoint" />
            <mxPoint x="-265.2529199999999" y="891.7129999999999" as="targetPoint" />
          </mxGeometry>
        </mxCell>
      </root>
    </mxGraphModel>
  </diagram>
</mxfile>
